<svg width="22" height="23" viewBox="0 0 22 23" fill="none" xmlns="http://www.w3.org/2000/svg">
<rect width="22" height="23" fill="#F5F5F5"/>
<g id="landing page" clip-path="url(#clip0_0_1)">
<rect width="1440" height="7500" transform="translate(-193 -4071)" fill="white"/>
<g id="Ellipse 1" filter="url(#filter0_f_0_1)">
<circle cx="457" cy="-227" r="360" fill="#3267FF" fill-opacity="0.44"/>
</g>
<g id="Group 1000003127">
<g id="Container">
<g id="Content">
<g id="_Pricing tier card" filter="url(#filter1_dd_0_1)">
<g clip-path="url(#clip1_0_1)">
<rect x="-17" y="-462" width="352" height="630" rx="14.2574" fill="white"/>
<g id="Content_2">
<g id="Check items">
<g id="Check item text">
<g id="Check icon">
<rect y="0.652832" width="21.3861" height="21.3861" rx="10.693" fill="#ECF8FF"/>
<path id="Icon" fill-rule="evenodd" clip-rule="evenodd" d="M15.2344 7.2382L8.85418 13.3956L7.16112 11.5867C6.84924 11.2926 6.35914 11.2748 6.00271 11.5243C5.65518 11.7827 5.55716 12.2372 5.77102 12.6025L7.77597 15.8639C7.97201 16.1669 8.31062 16.354 8.69379 16.354C9.05913 16.354 9.40666 16.1669 9.6027 15.8639C9.92349 15.4451 16.0453 8.14711 16.0453 8.14711C16.8472 7.32731 15.8759 6.60553 15.2344 7.22929V7.2382Z" fill="#0194F3"/>
</g>
</g>
</g>
</g>
</g>
<rect x="-16.5545" y="-461.554" width="351.109" height="629.109" rx="13.8118" stroke="#EAECF0" stroke-width="0.891087"/>
</g>
</g>
</g>
</g>
<g id="Group 1000003125">
<g id="div.elementor-container">
</g>
</g>
</g>
<defs>
<filter id="filter0_f_0_1" x="-891" y="-1575" width="2696" height="2696" filterUnits="userSpaceOnUse" color-interpolation-filters="sRGB">
<feFlood flood-opacity="0" result="BackgroundImageFix"/>
<feBlend mode="normal" in="SourceGraphic" in2="BackgroundImageFix" result="shape"/>
<feGaussianBlur stdDeviation="494" result="effect1_foregroundBlur_0_1"/>
</filter>
<filter id="filter1_dd_0_1" x="-27.693" y="-462" width="373.386" height="651.386" filterUnits="userSpaceOnUse" color-interpolation-filters="sRGB">
<feFlood flood-opacity="0" result="BackgroundImageFix"/>
<feColorMatrix in="SourceAlpha" type="matrix" values="0 0 0 0 0 0 0 0 0 0 0 0 0 0 0 0 0 0 127 0" result="hardAlpha"/>
<feMorphology radius="1.78217" operator="erode" in="SourceAlpha" result="effect1_dropShadow_0_1"/>
<feOffset dy="3.56435"/>
<feGaussianBlur stdDeviation="2.67326"/>
<feColorMatrix type="matrix" values="0 0 0 0 0.0627451 0 0 0 0 0.0941176 0 0 0 0 0.156863 0 0 0 0.03 0"/>
<feBlend mode="normal" in2="BackgroundImageFix" result="effect1_dropShadow_0_1"/>
<feColorMatrix in="SourceAlpha" type="matrix" values="0 0 0 0 0 0 0 0 0 0 0 0 0 0 0 0 0 0 127 0" result="hardAlpha"/>
<feMorphology radius="3.56435" operator="erode" in="SourceAlpha" result="effect2_dropShadow_0_1"/>
<feOffset dy="10.693"/>
<feGaussianBlur stdDeviation="7.12869"/>
<feColorMatrix type="matrix" values="0 0 0 0 0.0627451 0 0 0 0 0.0941176 0 0 0 0 0.156863 0 0 0 0.08 0"/>
<feBlend mode="normal" in2="effect1_dropShadow_0_1" result="effect2_dropShadow_0_1"/>
<feBlend mode="normal" in="SourceGraphic" in2="effect2_dropShadow_0_1" result="shape"/>
</filter>
<clipPath id="clip0_0_1">
<rect width="1440" height="7500" fill="white" transform="translate(-193 -4071)"/>
</clipPath>
<clipPath id="clip1_0_1">
<rect x="-17" y="-462" width="352" height="630" rx="14.2574" fill="white"/>
</clipPath>
</defs>
</svg>
